<svg width="55" height="24" viewBox="0 0 55 24" fill="none" xmlns="http://www.w3.org/2000/svg">
<path d="M7.81662 23H0.0822447V1.18182H7.88054C10.0751 1.18182 11.9643 1.61861 13.5482 2.49219C15.132 3.35866 16.35 4.60511 17.2023 6.23153C18.0616 7.85795 18.4913 9.80398 18.4913 12.0696C18.4913 14.3423 18.0616 16.2955 17.2023 17.929C16.35 19.5625 15.1249 20.8161 13.5268 21.6896C11.9359 22.5632 10.0325 23 7.81662 23ZM4.69517 19.0476H7.62486C8.98849 19.0476 10.1355 18.8061 11.0659 18.3232C12.0034 17.8331 12.7065 17.0767 13.1753 16.054C13.6511 15.0241 13.8891 13.696 13.8891 12.0696C13.8891 10.4574 13.6511 9.13991 13.1753 8.11719C12.7065 7.09446 12.007 6.34162 11.0766 5.85866C10.1462 5.37571 8.99915 5.13423 7.63551 5.13423H4.69517V19.0476ZM25.0158 6.63636L28.0201 12.3572L31.0989 6.63636H35.7544L31.0137 14.8182L35.8823 23H31.248L28.0201 17.343L24.8453 23H20.1578L25.0158 14.8182L20.3283 6.63636H25.0158ZM45.8718 23.2983C44.2809 23.2983 42.864 23.0249 41.6211 22.478C40.3853 21.924 39.4087 21.1641 38.6914 20.1982C37.9811 19.2251 37.6154 18.103 37.5941 16.8317H42.239C42.2674 17.3643 42.4414 17.8331 42.761 18.2379C43.0877 18.6357 43.5209 18.9446 44.0607 19.1648C44.6005 19.3849 45.2077 19.495 45.8824 19.495C46.5855 19.495 47.207 19.3707 47.7468 19.1222C48.2865 18.8736 48.7091 18.5291 49.0145 18.0888C49.3199 17.6484 49.4726 17.1406 49.4726 16.5653C49.4726 15.983 49.3093 15.468 48.9826 15.0206C48.663 14.5661 48.2013 14.2109 47.5976 13.9553C47.001 13.6996 46.2908 13.5717 45.4669 13.5717H43.4321V10.1839H45.4669C46.163 10.1839 46.7773 10.0632 47.31 9.82173C47.8498 9.58026 48.2688 9.24645 48.5671 8.82031C48.8654 8.38707 49.0145 7.88281 49.0145 7.30753C49.0145 6.76065 48.8831 6.28125 48.6203 5.86932C48.3647 5.45028 48.0025 5.12358 47.5337 4.8892C47.0721 4.65483 46.5323 4.53764 45.9144 4.53764C45.2894 4.53764 44.7177 4.65128 44.1992 4.87855C43.6807 5.09872 43.2652 5.41477 42.9527 5.8267C42.6402 6.23864 42.4733 6.72159 42.452 7.27557H38.0309C38.0522 6.01847 38.4108 4.91051 39.1069 3.9517C39.8029 2.9929 40.7404 2.24361 41.9194 1.70383C43.1054 1.15696 44.4442 0.883522 45.9357 0.883522C47.4414 0.883522 48.7588 1.15696 49.8881 1.70383C51.0174 2.25071 51.8945 2.98935 52.5195 3.91974C53.1516 4.84304 53.4641 5.87997 53.457 7.03054C53.4641 8.25213 53.0841 9.27131 52.3171 10.0881C51.5571 10.9048 50.5664 11.4233 49.3448 11.6435V11.8139C50.9499 12.0199 52.1715 12.5774 53.0096 13.4865C53.8547 14.3885 54.2738 15.5178 54.2667 16.8743C54.2738 18.1172 53.9151 19.2216 53.1907 20.1875C52.4733 21.1534 51.4826 21.9134 50.2184 22.4673C48.9542 23.0213 47.5053 23.2983 45.8718 23.2983Z" fill="#111827"/>
</svg>
